<?xml version="1.0" encoding="UTF-8" standalone="no"?>
<!DOCTYPE svg PUBLIC "-//W3C//DTD SVG 1.1//EN" "http://www.w3.org/Graphics/SVG/1.1/DTD/svg11.dtd">
<svg xmlns="http://www.w3.org/2000/svg" version="1.1" viewBox="0.00 0.00 1074.00 424.00">
<path fill="#ee3342" d="
  M 437.16 5.33
  C 441.11 7.37 446.03 9.00 449.19 11.51
  C 463.65 22.99 463.97 50.04 451.48 62.87
  C 447.72 66.74 441.13 68.85 436.03 71.13
  Q 431.51 73.15 428.19 73.29
  C 413.31 73.91 398.92 63.82 392.49 51.21
  C 390.30 46.92 391.52 35.31 391.49 30.17
  C 391.45 24.42 396.33 18.16 400.20 14.32
  C 404.03 10.51 409.73 8.14 414.73 5.57
  A 0.68 0.67 -26.4 0 0 415.03 4.69
  L 414.40 3.37
  A 0.44 0.43 68.6 0 1 414.66 2.77
  Q 425.06 -0.55 435.79 1.93
  Q 436.25 2.04 436.32 2.50
  L 436.64 4.60
  Q 436.72 5.10 437.16 5.33
  Z"
/>
<rect fill="#ee3342" x="498.75" y="1.02" width="63.76" height="325.76" rx="0.69"/>
<path fill="#ee3342" d="
  M 761.27 266.02
  C 766.84 261.57 771.94 255.74 776.58 250.55
  A 3.61 3.61 0.0 0 1 780.95 249.76
  C 784.37 251.56 787.03 253.07 791.19 253.50
  C 796.39 254.05 801.02 256.33 805.56 257.22
  C 808.66 257.82 811.27 258.11 814.35 259.34
  C 818.62 261.03 823.03 261.35 827.14 263.00
  Q 829.82 264.07 832.44 264.99
  A 1.35 1.34 -67.5 0 1 833.20 266.83
  C 828.08 277.64 819.30 287.41 812.82 296.07
  C 810.14 299.63 808.04 301.39 803.78 303.88
  C 796.84 307.95 792.89 313.23 784.64 317.08
  C 777.32 320.49 770.31 324.58 762.48 326.85
  C 757.90 328.18 753.27 329.98 748.70 330.46
  C 743.51 331.01 738.07 330.44 733.07 331.79
  C 728.20 333.09 722.29 335.22 717.24 333.53
  Q 708.39 330.58 705.43 330.75
  C 696.26 331.26 690.18 329.39 682.21 327.37
  C 670.78 324.47 659.94 319.27 649.84 313.24
  Q 647.89 312.08 646.25 310.59
  C 642.48 307.16 638.95 305.08 634.73 302.34
  C 627.60 297.71 626.12 291.69 620.73 286.00
  C 608.81 273.39 603.95 256.30 599.14 240.21
  Q 597.80 235.72 597.79 230.50
  Q 597.72 206.72 598.40 189.24
  C 598.55 185.39 600.98 183.02 601.08 179.25
  C 601.33 170.75 607.79 160.45 612.83 151.12
  C 628.71 121.66 657.34 104.69 689.26 97.03
  Q 694.25 95.83 698.84 95.93
  C 714.09 96.24 729.20 95.71 744.49 96.26
  Q 746.28 96.32 748.01 96.85
  C 761.48 100.95 775.69 104.10 787.47 112.19
  C 791.79 115.16 796.23 117.65 800.01 121.20
  Q 809.53 130.13 818.69 139.43
  Q 821.49 142.26 823.42 145.73
  C 834.25 165.25 842.24 184.70 843.38 206.99
  C 843.67 212.68 843.30 218.97 843.43 224.72
  Q 843.48 226.96 841.25 226.96
  L 663.88 227.11
  Q 661.76 227.11 662.30 229.15
  Q 666.54 245.30 677.29 259.70
  C 682.85 267.16 700.05 276.68 709.56 276.69
  Q 723.53 276.72 737.50 276.80
  Q 739.99 276.82 742.24 275.80
  C 748.62 272.93 755.99 270.26 761.27 266.02
  Z
  M 671.85 168.93
  C 667.07 174.93 664.02 183.63 663.02 190.75
  A 0.67 0.67 0.0 0 0 663.60 191.51
  Q 667.04 191.93 670.50 191.94
  C 705.43 192.00 740.36 192.28 775.27 191.63
  A 1.52 1.52 0.0 0 0 776.76 190.17
  C 777.05 182.34 767.33 166.27 761.79 161.02
  C 753.80 153.45 746.70 151.60 736.36 147.92
  C 729.01 145.31 720.39 145.76 712.71 145.98
  C 697.26 146.42 681.24 157.15 671.85 168.93
  Z"
/>
<path fill="#ee3342" d="
  M 3.18 106.00
  L 2.61 106.00
  Q 1.95 106.00 2.01 105.34
  L 2.32 102.16
  A 0.58 0.57 6.2 0 1 2.97 101.64
  C 21.47 104.39 41.44 103.06 66.27 102.99
  C 71.49 102.97 69.90 105.36 71.05 108.77
  Q 87.97 159.08 105.09 209.32
  C 107.39 216.05 109.33 224.11 111.78 231.45
  Q 111.94 231.92 112.40 232.11
  C 117.84 234.32 119.06 224.41 119.83 220.57
  Q 120.93 215.15 125.07 202.12
  C 131.95 180.44 138.11 158.51 144.71 136.74
  C 145.71 133.46 146.21 129.30 147.42 125.68
  Q 151.22 114.23 155.61 103.45
  A 0.84 0.84 0.0 0 1 156.39 102.92
  L 216.11 102.97
  Q 216.55 102.97 216.65 103.39
  C 222.51 126.43 230.34 149.16 237.07 171.98
  C 239.77 181.13 243.09 190.19 245.56 199.19
  Q 250.07 215.58 255.45 231.72
  Q 255.61 232.22 256.14 232.32
  C 259.00 232.82 260.88 227.28 261.55 225.23
  Q 269.24 201.46 277.58 177.90
  C 285.10 156.69 292.15 135.30 299.75 114.12
  Q 301.27 109.88 301.97 105.24
  A 2.03 2.01 3.7 0 1 303.94 103.52
  C 306.75 103.47 309.80 102.99 312.45 103.00
  Q 340.36 103.08 368.28 102.88
  Q 368.86 102.88 368.64 103.41
  C 358.23 128.84 350.17 155.59 341.74 181.75
  Q 330.99 215.10 294.22 320.95
  Q 293.70 322.45 291.92 325.86
  Q 291.69 326.30 291.20 326.39
  Q 289.69 326.68 288.25 326.68
  Q 257.87 326.78 227.50 326.75
  A 0.73 0.73 0.0 0 1 226.78 326.15
  C 226.07 322.42 225.48 318.73 224.44 315.32
  C 214.02 281.18 204.28 246.86 193.79 212.74
  C 193.35 211.29 193.62 209.06 193.02 207.22
  Q 190.79 200.45 188.40 193.43
  A 1.38 1.38 0.0 0 0 186.76 192.54
  C 182.37 193.64 182.05 205.71 180.73 209.43
  C 175.33 224.63 171.42 239.97 166.99 254.21
  C 160.02 276.62 153.82 299.14 146.38 321.42
  Q 145.60 323.76 145.77 325.94
  A 1.00 1.00 0.0 0 1 144.76 327.02
  Q 117.71 326.60 90.41 326.76
  C 83.37 326.80 78.46 328.17 75.83 319.69
  C 57.94 261.94 34.99 197.40 12.25 126.59
  C 10.49 121.11 8.63 113.65 5.62 107.53
  A 2.73 2.71 76.8 0 0 3.18 106.00
  Z"
/>
<path fill="#ee3342" d="
  M 942.68 424.00
  L 884.44 424.00
  L 879.11 423.30
  A 0.37 0.36 -49.8 0 1 879.05 422.59
  L 880.51 422.13
  Q 880.94 421.99 881.10 421.57
  C 888.61 401.14 897.49 381.15 905.45 360.87
  C 906.56 358.04 909.49 351.87 911.01 347.09
  Q 912.10 343.64 913.35 341.04
  Q 918.12 331.14 921.74 320.75
  C 922.12 319.66 922.14 318.61 921.69 317.47
  Q 911.03 290.33 901.14 262.90
  C 894.94 245.69 888.10 228.58 881.92 211.28
  C 878.74 202.37 874.94 193.21 871.95 184.76
  C 863.93 162.11 854.75 139.87 847.08 117.11
  C 845.90 113.62 843.43 108.66 842.39 103.94
  A 0.84 0.84 0.0 0 1 843.21 102.92
  L 908.79 102.99
  Q 909.05 102.99 909.14 103.23
  C 920.84 133.20 930.75 164.06 941.51 194.41
  Q 948.31 213.58 954.71 233.27
  A 1.01 1.00 -15.2 0 0 955.89 233.94
  Q 956.31 233.85 956.69 233.35
  Q 956.94 233.02 957.07 232.45
  C 958.65 225.41 962.53 217.99 964.50 213.06
  Q 977.87 179.47 991.61 146.04
  C 993.19 142.21 995.99 134.25 998.77 128.55
  Q 1000.37 125.24 1001.58 121.21
  Q 1003.75 113.98 1007.48 107.41
  C 1009.33 104.16 1011.77 103.07 1015.32 103.04
  Q 1028.61 102.95 1062.00 103.00
  C 1065.65 103.01 1069.35 102.45 1073.04 102.03
  A 0.65 0.64 -5.0 0 1 1073.76 102.63
  Q 1073.89 105.52 1072.80 109.31
  Q 1068.95 122.73 1067.05 127.06
  C 1062.02 138.53 1058.08 150.14 1053.09 161.83
  Q 1050.92 166.90 1047.75 174.79
  Q 1021.95 238.98 996.17 303.18
  C 994.64 307.01 993.23 312.03 991.04 316.57
  Q 987.05 324.81 984.16 333.50
  C 982.98 337.01 981.04 340.42 979.67 343.97
  Q 972.26 363.27 964.56 382.45
  C 963.40 385.33 960.22 391.80 958.66 396.69
  C 955.89 405.35 951.72 413.46 948.88 422.20
  A 0.94 0.93 3.2 0 1 948.18 422.82
  L 942.68 424.00
  Z"
/>
<rect fill="#ee3342" x="395.53" y="102.98" width="63.72" height="223.74" rx="1.01"/>
</svg>
